<svg width="24" height="24" viewBox="0 0 24 24" fill="none" xmlns="http://www.w3.org/2000/svg">
<path fill-rule="evenodd" clip-rule="evenodd" d="M11.8 1.25H11.7679H11.7679C10.9551 1.24999 10.2994 1.24999 9.76853 1.29336C9.2219 1.33803 8.74175 1.43239 8.29754 1.65873C7.59193 2.01825 7.01825 2.59193 6.65873 3.29754C6.43238 3.74175 6.33803 4.2219 6.29336 4.76853C6.24999 5.29944 6.24999 5.95506 6.25 6.7679L6.25 6.8V7.35652C5.73161 7.42746 5.27175 7.54954 4.84355 7.76772C3.94978 8.22312 3.22312 8.94978 2.76772 9.84355C2.48688 10.3947 2.36527 10.9983 2.30699 11.7117C2.24999 12.4094 2.24999 13.2749 2.25 14.367V14.4V15.6V15.633C2.24999 16.7251 2.24999 17.5906 2.30699 18.2883C2.36527 19.0017 2.48688 19.6053 2.76772 20.1565C3.22312 21.0502 3.94978 21.7769 4.84355 22.2323C5.39472 22.5131 5.99834 22.6347 6.71173 22.693C7.40934 22.75 8.27481 22.75 9.36691 22.75H9.36698H9.4H14.6H14.633H14.6331C15.7252 22.75 16.5907 22.75 17.2883 22.693C18.0017 22.6347 18.6053 22.5131 19.1565 22.2323C20.0502 21.7769 20.7769 21.0502 21.2323 20.1565C21.5131 19.6053 21.6347 19.0017 21.693 18.2883C21.75 17.5906 21.75 16.7252 21.75 15.633V15.6V14.4V14.367C21.75 13.2748 21.75 12.4094 21.693 11.7117C21.6347 10.9983 21.5131 10.3947 21.2323 9.84355C20.7769 8.94978 20.0502 8.22312 19.1565 7.76772C18.7283 7.54954 18.2684 7.42746 17.75 7.35652V6.8V6.76788C17.75 5.95505 17.75 5.29944 17.7066 4.76853C17.662 4.2219 17.5676 3.74175 17.3413 3.29754C16.9817 2.59193 16.4081 2.01825 15.7025 1.65873C15.2582 1.43239 14.7781 1.33803 14.2315 1.29336C13.7006 1.24999 13.0449 1.24999 12.2321 1.25H12.2321H12.2H11.8ZM16.25 7.2597V6.8C16.25 5.94755 16.2494 5.35331 16.2116 4.89068C16.1745 4.4368 16.1054 4.17604 16.0048 3.97852C15.789 3.55516 15.4448 3.21095 15.0215 2.99524C14.824 2.8946 14.5632 2.82547 14.1093 2.78838C13.6467 2.75058 13.0525 2.75 12.2 2.75H11.8C10.9475 2.75 10.3533 2.75058 9.89068 2.78838C9.4368 2.82547 9.17604 2.8946 8.97852 2.99524C8.55516 3.21095 8.21095 3.55516 7.99524 3.97852C7.8946 4.17604 7.82546 4.4368 7.78838 4.89068C7.75058 5.35331 7.75 5.94755 7.75 6.8V7.2597C8.22605 7.24999 8.7617 7.25 9.36697 7.25H9.36699H9.367H9.4H14.6H14.633H14.633H14.633C15.2383 7.25 15.774 7.24999 16.25 7.2597ZM12.75 14C12.75 13.5858 12.4142 13.25 12 13.25C11.5858 13.25 11.25 13.5858 11.25 14V16C11.25 16.4142 11.5858 16.75 12 16.75C12.4142 16.75 12.75 16.4142 12.75 16V14Z" fill="#121212"/>
</svg>
